/* XPM */
static char *_77f5fe86f4b4937e528c6602184890f[] = {
/* columns rows colors chars-per-pixel */
"64 64 244 2 ",
"   c None",
".  c #1B056C",
"X  c #1C0A6D",
"o  c #180566",
"O  c #1E136A",
"+  c #1E1367",
"@  c #1E0572",
"#  c #1D0974",
"$  c #1E0C7A",
"%  c #001E64",
"&  c #24026D",
"*  c #28026F",
"=  c #21146B",
"-  c #241A6C",
";  c #261C69",
":  c #250472",
">  c #2A0274",
",  c #2C037B",
"<  c #230A7D",
"1  c #2B097E",
"2  c #240878",
"3  c #251576",
"4  c #042463",
"5  c #0B2A68",
"6  c #14326D",
"7  c #1A3772",
"8  c #183774",
"9  c #0F3071",
"0  c #28226B",
"q  c #2B237A",
"w  c #2A2775",
"e  c #213D75",
"r  c #312B75",
"t  c #2A447A",
"y  c #2E4A7D",
"u  c #334E7F",
"i  c #2E0282",
"p  c #250C82",
"a  c #2A0B83",
"s  c #320385",
"d  c #34068A",
"f  c #35098D",
"g  c #380A8E",
"h  c #340886",
"j  c #291787",
"k  c #33178D",
"l  c #360A93",
"z  c #3A0C95",
"x  c #350C9A",
"c  c #3B0D9B",
"v  c #380692",
"b  c #2C1796",
"n  c #3C1295",
"m  c #341A95",
"M  c #3D129C",
"N  c #38159A",
"B  c #2B0A92",
"V  c #1E2083",
"C  c #2B2986",
"Z  c #312D8A",
"A  c #343592",
"S  c #32308E",
"D  c #3C0DA4",
"F  c #3D0EAB",
"G  c #370FA2",
"H  c #3D13A3",
"J  c #3E1BA4",
"K  c #3D12AC",
"L  c #3C1BAD",
"P  c #3518A6",
"I  c #3D18B1",
"U  c #3319A7",
"Y  c #3622AC",
"T  c #3D22B1",
"R  c #3625B4",
"E  c #2F22A5",
"W  c #1D1D81",
"Q  c #47089E",
"!  c #40139D",
"~  c #41189C",
"^  c #430FA6",
"/  c #4213A4",
"(  c #431CA4",
")  c #4112AD",
"_  c #431DAC",
"`  c #4D17AC",
"'  c #4215B4",
"]  c #4C15B4",
"[  c #441CB3",
"{  c #4D1BB3",
"}  c #4A16BC",
"|  c #451CBA",
" . c #4B1CBC",
".. c #4414BA",
"X. c #5C15BB",
"o. c #5B1BBD",
"O. c #5519B6",
"+. c #5313AF",
"@. c #611BBF",
"#. c #4421AC",
"$. c #4B24AD",
"%. c #4623A6",
"&. c #4521B4",
"*. c #4923B4",
"=. c #4522BA",
"-. c #4A24BC",
";. c #4D2BB7",
":. c #5A23BD",
">. c #5525B9",
",. c #552CB6",
"<. c #6A2FBE",
"1. c #284887",
"2. c #334E85",
"3. c #3B5588",
"4. c #3A4199",
"5. c #445B8A",
"6. c #485F8C",
"7. c #465E90",
"8. c #4D6491",
"9. c #566B97",
"0. c #566A95",
"q. c #60749C",
"w. c #5A72A2",
"e. c #6D7FA3",
"r. c #4C1CC3",
"t. c #4A1EC8",
"y. c #511BC4",
"u. c #561DCA",
"i. c #531FD2",
"p. c #6316C3",
"a. c #691AC7",
"s. c #701BCE",
"d. c #7C1DD7",
"f. c #4C24C2",
"g. c #4C29C4",
"h. c #4B24CA",
"j. c #5322CC",
"k. c #5928C6",
"l. c #5633C9",
"z. c #5323D4",
"x. c #5B2DDB",
"c. c #5829D8",
"v. c #5533D4",
"b. c #5A35DB",
"n. c #5E3BDC",
"m. c #5A37D4",
"M. c #4A23D1",
"N. c #6629C7",
"B. c #6635CA",
"V. c #6B2CDC",
"C. c #612CD9",
"Z. c #7627D4",
"A. c #6837D8",
"S. c #7B3CD9",
"D. c #7638D8",
"F. c #752ECA",
"G. c #5E37E1",
"H. c #643AE3",
"J. c #7E3CE2",
"K. c #7739E1",
"L. c #6942DA",
"P. c #7B42DB",
"I. c #7949DC",
"U. c #7852D4",
"Y. c #7D45E3",
"T. c #754DE5",
"R. c #7B4CE4",
"E. c #7749E5",
"W. c #7C54E7",
"Q. c #6C43E5",
"!. c #8B1BDE",
"~. c #8819DE",
"^. c #921BDE",
"/. c #8629DB",
"(. c #843CDD",
"). c #8535DC",
"_. c #9221DF",
"`. c #8E19E0",
"'. c #A21AE6",
"]. c #A31BE8",
"[. c #A317E6",
"{. c #9426E0",
"}. c #833DE3",
"|. c #8C3DE2",
" X c #9939E3",
".X c #8E2EE2",
"XX c #A528E7",
"oX c #AB3CEA",
"OX c #A738E8",
"+X c #8646DE",
"@X c #8B56D0",
"#X c #9969DD",
"$X c #8445E3",
"%X c #8B44E4",
"&X c #8C4AE5",
"*X c #854DE5",
"=X c #9345E6",
"-X c #924BE6",
";X c #944DE9",
":X c #9A4DEA",
">X c #9648E8",
",X c #8757E8",
"<X c #9C54EC",
"1X c #9659EA",
"2X c #AB44EC",
"3X c #AD4BEE",
"4X c #A449E8",
"5X c #AB5CED",
"6X c #A557EC",
"7X c #B156EF",
"8X c #AE52F0",
"9X c #AE5CF1",
"0X c #B155F0",
"qX c #B25CF1",
"wX c #AF4AEE",
"eX c #9666EB",
"rX c #9875F1",
"tX c #8F6BED",
"yX c #A769EE",
"uX c #AD69F3",
"iX c #B363F2",
"pX c #B46CF2",
"aX c #B967F0",
"sX c #A977F2",
"dX c #B272F4",
"fX c #B47CF5",
"gX c #BB78F5",
"hX c #A47DEF",
"jX c #7A8AAC",
"kX c #A784F4",
"lX c #BA83F6",
"zX c #B986F8",
"xX c #B48EEE",
"cX c #BEA4F8",
"vX c #C289F7",
"bX c #C798F8",
"nX c #C6A5FA",
"mX c #D7B9FB",
"MX c #D1ACFB",
"NX c #DEC9FD",
"BX c #E3CAFD",
"VX c #E6D6FD",
"CX c #F8FCFF",
"ZX c #EBE6FE",
/* pixels */
"                                                                                                                                ",
"                                                                                                                                ",
"                                                                                                                                ",
"                                                                                                                                ",
"                                                            ; k 3 r                                                             ",
"                                              0 ; 3 $ $ j E L nXL.b E < 2 3 O -                                                 ",
"                                        0 = 2 < p 2 k L U x G H [ f b I P 2 1 p $ $ + w                                         ",
"                                    O < p < & * > #.K l d c H 1 n n z f G =.k & & : < p # ;                                     ",
"                                + p p & > > s :.k.F c z c s H h M d l c c D } <.v > > & 2 < # -                                 ",
"                            = < a : > a ( [ r.xX,Xh._ ! i s H h n f s d J =.c.nXD.| ( n > & 2 < # r                             ",
"                          X a : > , #.f.) z K t.=.D D ' -.N M i M d #.-.F c | ..g.D D [ -.n > > p 2 O                           ",
"                      r 2 p : > f -.F l l ! ( F / l M g c | ;.i _ -.F l M n M c f.f c f D | ( , : : p O                         ",
"                    + < 2 : s U.P.K n c d s _ ^ l n s ! n M r.eXD.K M c f s H l f.s s c z D r.#X^ > & p . A                     ",
"                  = < j J =.| 1XR.r.=._ g s [ F l z s ~ -.v.c.kXT.v.g.*.g s M l h.s h ( &.=.h.sXk.-.[ m p . A                   ",
"                - j T L D z H | | M v D | &.( ' / n v.j.} ` k.c.m.] ) t.b.;.! c f.N f.K c c *.F -.c z G Y E . A                 ",
"              q p I l d c c ( ) M f ! M f ) g.j.l.x.y.{ >.O.k.c.A.` >.{ ] i.A...l.I x z M z M c f.d M l f N Y #                 ",
"              U.tX[ x z h s #.' d c s f ! ` B.xXrXL.k.u.X.@.A.V.K.@.@.O.k.l.T.MXI.l.c z s s c z g., s l c P f.nXk               ",
"            = ,.k.i z M M s #.K f z h ;.v.x.x.rXtXT.,XI.F.a.S.K.Y.s.N.P.*XT.W.rXR.z.b.l.( s c z h.s z ! c h D B.< C             ",
"          r < L N H f h s M ( I / ( b.t.] o.B.W.I.P.Y.(.-X1X(.$X&X(.1X$XJ.Y.P.E.T.:.+.} z.g.J G =.n z h h n H B R .             ",
"          X E G f z z M l s l j.v.h.' { :.o.D.Y.$Xd.).-X-X:XyXyXsX<X>X>X+Xd.(.S.,XO.:.>.) | b. .-.s s M H d N f Y # C           ",
"        Z < m G d c s s n *. .xXkXm.N.] O.u.+X+X%X.X!.~. XyXlXBXbXfX6X~.!.~.%X}.,Xp.@.+.:.l.H.BXN.=.#.h s s H v T < X           ",
"        3 p m K v z n -.| ^ K H.n.c.c.D.D.Z.+X=X:X!. XdXfXpXdXlXlXpXdXfX5X^.=X%XeXs.V.D.C.z.H.C.l.D ' f._ s c c &.# . A         ",
"        . a a =.F _ | D f M %.h.-.>.A.V.D.&X-X1X6XyXfX7X2X3X2XqX9XOX2X2XuXfX6X<X1X%XS.V.V.m.$...g.M z l K -.( D T & < j         ",
"      Z < : , k.A.K c M H s ;.t.` o.u.S.%X%X<XlXzXdX8X2XOX[.3XwXiX'.XX2X3X9XlXfXsX-X&XY.F.+.O.' n.i z M M D j.C.z & p #         ",
"      q p > s #XsXh.H n s s ,.i.` k.@.s.).1XsXBXbXgX2XXX'.'.3XwX9XXX[.].oXqXzXVXlXyX+XF.a.X.>.] A.s s d M &.C.mXQ > 1 o         ",
"      3 p > , f.r.I D l N c ,.z.o.o.D.1X>X:X5XzXfXiX0X7X7XOXqXgXgXXX3XqXwXqXpXfXfX<X;X,X+XN.:.y.b.d ~ z l ' h.F / > 2 # A       ",
"      $ p , N ' c n -.' c c $.H.m.T.Y.(.-X>X4XsX0XXX9X0X7XvXmXVXNXbXaX3XqX2XOXqXfX.X:X}.(.W.L.j.m.J l K -.( c c -.> & < S       ",
"      # a > ( ' d c s N [ f.r.eXrX,XP.+X/.!.6XiX3XXX'.oXaXmXCXCXCXVXvX3XXX].2X3XlX^.!.).S.R.,XkXA.=. ._ g s D z -., & < V       ",
"      # a > ( K d c s z ( -.j.hXkXW.P.)./.^.6XiX2XXX].XXaXmXCXCXCXVXvX2X].].2X3XlX^.!.).S.T.,XcXA.-.[ ~ h s M x f.> & < W       ",
"      3 p , J ' c z *.| D c *.H.A.R.E.}.-X X4XdX0XXX8X0XiXbXNXZXVXMXaX8XqXoXOX8XfX{.-X$XJ.W.U.z.m.! c ) -.M c D -., & < S       ",
"      j p > i f.| | D g M ! $.z.>.@.+X1X&X:X6XzXpXiX8X0XqX2XaXvXvXoX8X0X8X9XpXdXsX6X>X-X,XN.:.r.m.g / l c ' f.) ( , : # A       ",
"      q p > h @XrX .M M d s ,.j.` N.@.s.%X1XdXmXbXgX2XOX'.'.wXwXqXXX].XX2X9XgXBXzXyX&XD.p.o.:.] G.s s z n L C.bXQ 2 p o         ",
"      Z p & , N.P.' / c c h *.u.+.:.p.D.$X;X6XzXvXdX8X2XXX'.8X3XqX'.XXOX2XiXzXvXfX;X&X(.N.X.>.' n., v ~ M H j.+Xc > p .         ",
"        @ 1 < f.K #.' x f / %.M.{ :.A.D.S.*X;XyX6XdXpX3X3X2XoXqXqXXX3X2XqXfXyX<X<X&XJ.V.V.B.{ ..g.M c v D -.[ D %.& p j         ",
"        $ p m K x f J -.' D ) G.A.x.c.V.S.Z.+X;X<X_.4XfXdXiXpXgXlXuXiXfXiX{.=X=XeXs.S.D.x.z.L.z.v.c / f.*.h c c T : # S         ",
"        C < m K d c s s n ;.f.xXkXn.l.o.X.a.+X&X&X.X!.!.OXyXzXBXbXlX6X!.!.`.=X|.1Xa.u.+.:.m.Q.NXN.f.#.s s s D l T p .           ",
"          & E G d c l M M s d k.b.t.' >.N.o.D.Y.&X/./.=X:X:XyXdXsX6X:X:X|.~.+XS.,Xo.N.:.] ' x.k.-.i f H ! s M l L # C           ",
"          q k L N H z s s c ( | H ;.c.r.O.:.B.R.R.D.$X(.&X1X&X=X-X-X1X$X}.$XP.Q.I.:.O...h.v._ c =.M g d h / M x R o             ",
"            o >.f.h d M / d _ K g z n g.b.c.x.tXtXT.,X*X(.s.(.}.&Xs.Z.+X,XR.,XtXW.j.x.v.$.s M x g.i c M z , K -.j C             ",
"            S @XrXI / l d s %.K g N s s N ,.A.MXrXI.B.o.u.p.D.V.D.N.@.X.k.A.W.NX,Xl.` g s s H v g.s s h M L y.mXn               ",
"              j b L l l n l ( ) z g n M l F f.j.A.b.y.O.:.o.B.x.H.+.:.:.} i.L.y.v.' x c M g M c f.h M z h x T @                 ",
"                O b T G c x / | ) ~ v D ' -.%.' / ( n.t.] { ,.c.m.{ ` y.x.,._ D -.~ -.F z c [ D -.c l c L R . A                 ",
"                  = p m I f.' Y.K.I -.&.M i _ ) c z f $.v.v.z.tXQ.j.v.g.~ s H z h.i d _ =.| r.,Xj. .=.P j . C                   ",
"                    X a 2 > z #X,X[ c z d s [ ^ z z s l z M j.xXP.&.M z s s M v g.h s g z D k.xXO.1 & a @ C                     ",
"                      = p 1 > , z -.F f c z ( K ~ v M l z K f.f &.-.c g c c M x f.f c g z ' [ s > > a X S                       ",
"                        w $ a > , d *.| D l L r.| D x K f.( M s M g -.| D z =.F g.x c ) -.( , > 2 a =                           ",
"                            = a a > > z $.=.r.hXR.f.[ ( h s H h z f s n #.| j.zXA.-.[ ( , > 2 a # q                             ",
"                              w # p 1 > > , s F.B.K c c l s M s n l d c c H  .@XQ , , > 2 a 2 =                                 ",
"                                  w 3 p a < > > i -.K l l M H s M l c d x | J > > > a a < -                                     ",
"                                        = < p a a : N &.G l L x [ x x I T a > a p p = ;                                         ",
"                                              - 3 < p $ m R L nXA.Y Y j < < < - 0                                               ",
"                                                        ; 0 O ~ 3 ; ;                                                           ",
"                                                                                                                                ",
"                                                                                                                                ",
"                                                                                                                                ",
"                                                                                                                                ",
"                                                                                                                                ",
"                          5 6     6 7         8 3.        8     2.  e 8.1.e.7   4 q.  5 t       1.5                             ",
"                          6.9     7 e       6.9.1.        8.7   w.      1.      4 0.  5 5.      q.6 2.                          ",
"                          6.3.t 5.t e       2.9.% t         5   w.      1.      4 7.e jX      5 6.t % 5.                        ",
"                          6.  5 3.  e     7   7 y 2.          5 w.      1.      4 q.  1.      5.  y 5 6.                        ",
"                          7 2.7   e 8   t 9 y     5 3.  6 y   6 8.      8 2.    6 y   4 t   8 8     7 8 8.                      ",
"                                                                                                                                ",
"                                                                                                                                "
};
