/* XPM */
static char *_2e913d73bf54410862104be12e5bfe5[] = {
/* columns rows colors chars-per-pixel */
"16 16 137 2 ",
"   c None",
".  c #1C0C6A",
"X  c #1F0E6B",
"o  c #200D6A",
"O  c #210C6C",
"+  c #200D6E",
"@  c #220C6F",
"#  c #230D71",
"$  c #220E71",
"%  c #28117E",
"&  c #264179",
"*  c #29437B",
"=  c #2E487D",
"-  c #2F0A8D",
";  c #300A8D",
":  c #300C8F",
">  c #2A1283",
",  c #2B1184",
"<  c #291286",
"1  c #291386",
"2  c #2C1287",
"3  c #281585",
"4  c #2A118A",
"5  c #2A1588",
"6  c #2C148C",
"7  c #2B1A8A",
"8  c #330D95",
"9  c #330D96",
"0  c #390B96",
"q  c #390D97",
"w  c #3A0D97",
"e  c #370D9A",
"r  c #390B98",
"t  c #3A0D9B",
"y  c #3B0D9B",
"u  c #3A0F9B",
"i  c #3B0E9C",
"p  c #321195",
"a  c #371897",
"s  c #331298",
"d  c #371798",
"f  c #3C129E",
"g  c #3D1F9B",
"h  c #372592",
"j  c #3A2495",
"k  c #3A12A1",
"l  c #3B12A1",
"z  c #3D11A2",
"x  c #3C12A3",
"c  c #3E13A3",
"v  c #3B11A4",
"b  c #3F11A4",
"n  c #3E13A4",
"m  c #401E9F",
"M  c #4013A6",
"N  c #4012A7",
"B  c #4014A6",
"V  c #4015A7",
"C  c #4117A7",
"Z  c #4118A7",
"A  c #4113A9",
"S  c #4115A8",
"D  c #4014AA",
"F  c #4314AA",
"G  c #4515A9",
"H  c #4417A8",
"J  c #4515AA",
"K  c #4416AB",
"L  c #4215AC",
"P  c #4414AC",
"I  c #4118A9",
"U  c #461AAB",
"Y  c #471AAF",
"T  c #481AAF",
"R  c #4B1DAF",
"E  c #4819B2",
"W  c #481EB0",
"Q  c #4B1DB3",
"!  c #4C1CB0",
"~  c #4D1CB3",
"^  c #4819B4",
"/  c #4C1CB4",
"(  c #4E1CB4",
")  c #4A20B2",
"_  c #4A21B2",
"`  c #4D20B2",
"'  c #4F22B6",
"]  c #4F24BE",
"[  c #5122B9",
"{  c #5222B8",
"}  c #5222BC",
"|  c #5226C1",
" . c #5A2BC6",
".. c #592DC7",
"X. c #5D2DC9",
"o. c #5C2FCA",
"O. c #612FD1",
"+. c #6332D1",
"@. c #6333D1",
"#. c #6430D1",
"$. c #6839D0",
"%. c #6B3BD3",
"&. c #6E39D4",
"*. c #733AD6",
"=. c #703DD7",
"-. c #763DD8",
";. c #7E3EDC",
":. c #7E48E3",
">. c #803DDB",
",. c #813EDD",
"<. c #8140DE",
"1. c #8641DF",
"2. c #8843E0",
"3. c #8B47E3",
"4. c #8449E5",
"5. c #8450E7",
"6. c #8752E7",
"7. c #9D51EA",
"8. c #9D53EA",
"9. c #A54DEC",
"0. c #AF49EF",
"q. c #B14CEF",
"w. c #A351EB",
"e. c #A750ED",
"r. c #A753EC",
"t. c #A75FED",
"y. c #A85CED",
"u. c #B153F0",
"i. c #B157F0",
"p. c #B455F0",
"a. c #B459F1",
"s. c #B55BF1",
"d. c #B55FF2",
"f. c #BE6EF2",
"g. c #C075F2",
"h. c #C683F3",
"j. c #C98DF5",
/* pixels */
"                                ",
"          O > g a % .           ",
"      O 9 / ^ r t } F : .       ",
"    1 Q P v v  .] z l { F 3     ",
"  h H i n $.:.;.>.5...z t R     ",
"  p z ) +.2.9.f.i.w.;.@.Z F 1   ",
"  f U Q *.t.0.h.f.a.7.&.C ` ;   ",
"  f H ) -.y.0.j.g.p.7.=.Z R -   ",
"  s M ) #.3.r.s.u.r.,.+.I H 4   ",
"  j H i C %.4.1.1.5.X.M w ! 7   ",
"    6 / T v C o.| C l ' L 5     ",
"      $ t / T w i { P 8 $       ",
"          O 2 Z d 1 $           ",
"                                ",
"              &     =   *       ",
"                                "
};
