/* XPM */
static char *_118c9d938fb4002b66a915d03cbaf9a[] = {
/* columns rows colors chars-per-pixel */
"32 32 179 2 ",
"   c None",
".  c #1F0F70",
"X  c #200F6F",
"o  c #22166E",
"O  c #241C6D",
"+  c #200777",
"@  c #220E76",
"#  c #24057A",
"$  c #29047E",
"%  c #240C7C",
"&  c #221473",
"*  c #231A74",
"=  c #23137B",
"-  c #231A7B",
";  c #0D2A69",
":  c #18366F",
">  c #16326D",
",  c #1F3C74",
"<  c #1A3773",
"1  c #223E76",
"2  c #264177",
"3  c #264279",
"4  c #2A457A",
"5  c #2C487C",
"6  c #2C0681",
"7  c #250C82",
"8  c #280882",
"9  c #2E0B8A",
"0  c #330585",
"q  c #330B87",
"w  c #34078A",
"e  c #36098D",
"r  c #380A8D",
"t  c #2B1B85",
"y  c #2C118C",
"u  c #271985",
"i  c #301B87",
"p  c #370A91",
"a  c #390C94",
"s  c #360D9A",
"d  c #3A0C9B",
"f  c #2A1690",
"g  c #2B1698",
"h  c #331296",
"j  c #33139A",
"k  c #3B119C",
"l  c #3B1195",
"z  c #3B0FA1",
"x  c #3614A5",
"c  c #3D13A4",
"v  c #3018A6",
"b  c #3E15AA",
"n  c #3218AA",
"m  c #40269B",
"M  c #472D9C",
"N  c #4E319B",
"B  c #4016A5",
"V  c #4318A5",
"C  c #4016AB",
"Z  c #421AAD",
"A  c #4C19AB",
"S  c #4717B3",
"D  c #4B17B4",
"F  c #451DB2",
"G  c #4F1AB2",
"H  c #4B1CB9",
"J  c #5218B6",
"K  c #5319BA",
"L  c #5523AB",
"P  c #4620B7",
"I  c #4820B4",
"U  c #4722B9",
"Y  c #4B22BB",
"T  c #5125BE",
"R  c #334D82",
"E  c #3D5486",
"W  c #435A8A",
"Q  c #4F6692",
"!  c #5A6E97",
"~  c #6547B2",
"^  c #4C1FC1",
"/  c #661CC4",
"(  c #6B1FC8",
")  c #4D21C4",
"_  c #4F23C8",
"`  c #5126C2",
"'  c #5329C3",
"]  c #5A2BC7",
"[  c #5323CA",
"{  c #5728CD",
"}  c #5E2ACC",
"|  c #5F31C4",
" . c #592CD0",
".. c #6521C4",
"X. c #6825C6",
"o. c #6226C9",
"O. c #6B24CA",
"+. c #6B29CA",
"@. c #6B37C3",
"#. c #6A38CC",
"$. c #6D39C5",
"%. c #6C2CD4",
"&. c #752ED7",
"*. c #6334D3",
"=. c #643AD4",
"-. c #6C39D2",
";. c #6A3FDB",
":. c #7A37DE",
">. c #7C3BDC",
",. c #7536D6",
"<. c #7E3DE2",
"1. c #6D44D4",
"2. c #6E41DE",
"3. c #774AD6",
"4. c #7444DA",
"5. c #7E4EDE",
"6. c #7C43E1",
"7. c #784CE7",
"8. c #7D52E2",
"9. c #7350E8",
"0. c #9325DF",
"q. c #8238DE",
"w. c #8F2FE1",
"e. c #952CE2",
"r. c #8036E0",
"t. c #8A32E1",
"y. c #883DE3",
"u. c #9235E4",
"i. c #9F3BE6",
"p. c #9933E3",
"a. c #A72DE9",
"s. c #A82CE9",
"d. c #A525E9",
"f. c #A732EB",
"g. c #A935EB",
"h. c #A93AEB",
"j. c #8A45E3",
"k. c #8643E5",
"l. c #9241E6",
"z. c #934DE6",
"x. c #934DE9",
"c. c #8253E3",
"v. c #8059E6",
"b. c #9751EA",
"n. c #9759E9",
"m. c #9D5DEC",
"M. c #AB44ED",
"N. c #AC4AED",
"B. c #A551EB",
"V. c #AE52EF",
"C. c #A958ED",
"Z. c #A659EC",
"A. c #B057F0",
"S. c #B15DF1",
"D. c #8B60E7",
"F. c #8663EC",
"G. c #8A65EB",
"H. c #8C68EE",
"J. c #8B66F0",
"K. c #9E7DF6",
"L. c #AC61EE",
"P. c #A76BEF",
"I. c #A264ED",
"U. c #B362F1",
"Y. c #AF73F1",
"T. c #B479F4",
"R. c #BD7FF6",
"E. c #A282F5",
"W. c #BD87F7",
"Q. c #BE8BF7",
"!. c #BE84F8",
"~. c #C388F5",
"^. c #C091F7",
"/. c #C89AFB",
"(. c #C592F9",
"). c #E7DBFC",
"_. c #EBE6FE",
"`. c #F1F0FF",
"'. c #F7FFFF",
/* pixels */
"                                                                ",
"                                                                ",
"                          & u ~ M - o                           ",
"                  o & # 9 b j x c x x 8 # &                     ",
"              o % $ a @.*.c w p p w C 5.A q $ .                 ",
"            X # r S d F B d C h c C d C S z b 0 # &             ",
"          % h @.*.B 0 Z w r F 8.*.Z 0 a x r C c.A y &           ",
"        f x d S k s b H H _ D  .' H ` S I c d c Z d n =         ",
"      N @.s 0 S e a Y D.G.-./ ,.%...-.K.2.F 0 s c r s 3.t       ",
"      v s p w C U ^ K 4.>.q.x.n.n.x.r.6.#.H ) U B w r s g       ",
"    & x a s C 1.9.} ( k.u.p.L./.W.Z.0.j.>...{ J.` C r d g *     ",
"    # B H c p Y G %.k.I.Y.S.g.N.M.h.U.Y.n.<.o.S Z a C ` q 7     ",
"    $ L =.k w ` J &.z.^.W.M.d.A.M.s.V./.T.j.X.J Z r z 8.r +     ",
"  * 8 b p c C =.v.6.w.L.h.h.~.`.).S.f.M.B.t.6.v.' C d z k +     ",
"  * 8 b p k C 1.F.k.0.L.g.g.~.'._.U.a.M.B.q.6.G.] B s d k #     ",
"    $ L =.s r ` K ,.z.Q.!.M.s.U.N.f.V.(.Y.k.+.K F r c 3.r +     ",
"    # V ` z r Y J %.j.P.T.V.a.N.h.h.U.T.m.<.o.S I p c ] q 7     ",
"    = c p k b 4.9.o.O.l.u.i.L./.W.C.e.l.q.O.{ G.' b a d j -     ",
"    O n a p e Z ` ) K 4.4.u.x.Z.m.x.t.6.-.K ^ T c q a s g       ",
"      N ] d w C r l ` G.H.4.O.:.&.O.4.E.2.I r a B r a 3.t       ",
"        g c a Z k s b H ` [ J } ] H [ H U c a c b d b t         ",
"          y j #.=.c 0 C r a P v.=.Z 0 d c r C c.G j .           ",
"            @ $ d C s S k d C d B C d c Z d Z w # &             ",
"              * 8 6 k $.*.c 0 p p r C 5.G a $ % *               ",
"                  * # 8 e b z x B x x 9 $ @ *                   ",
"                        * & t ~ m t &                           ",
"                                                                ",
"                                                                ",
"                            ;     1 4   5       ;               ",
"              5 4     W :   E 3 !   R   3 E     E 1             ",
"            5 1 4 1 >   ,   4   Q   4   4 <   1   1             ",
"                                                                "
};
